M48
; DRILL file {KiCad 6.0.2+dfsg-1} date Mon 24 Oct 2022 07:55:37 PM CEST
; FORMAT={-:-/ absolute / inch / decimal}
; #@! TF.CreationDate,2022-10-24T19:55:37+02:00
; #@! TF.GenerationSoftware,Kicad,Pcbnew,6.0.2+dfsg-1
; #@! TF.FileFunction,Plated,1,2,PTH
FMAT,2
INCH
; #@! TA.AperFunction,Plated,PTH,ViaDrill
T1C0.0157
; #@! TA.AperFunction,Plated,PTH,ComponentDrill
T2C0.0315
%
G90
G05
T1
X5.58Y-3.23
T2
G00X5.6102Y-2.9173
M15
G01X5.6102Y-2.9882
M16
G05
G00X5.6102Y-3.4685
M15
G01X5.6102Y-3.5394
M16
G05
G00X5.6732Y-2.8543
M15
G01X5.7441Y-2.8543
M16
G05
G00X5.7441Y-3.6024
M15
G01X5.6732Y-3.6024
M16
G05
G00X5.8071Y-2.9882
M15
G01X5.8071Y-2.9173
M16
G05
G00X5.8071Y-3.5394
M15
G01X5.8071Y-3.4685
M16
G05
G00X6.1614Y-2.9173
M15
G01X6.1614Y-2.9882
M16
G05
G00X6.1614Y-3.4685
M15
G01X6.1614Y-3.5394
M16
G05
G00X6.2244Y-2.8543
M15
G01X6.2953Y-2.8543
M16
G05
G00X6.2953Y-3.6024
M15
G01X6.2244Y-3.6024
M16
G05
G00X6.3583Y-2.9882
M15
G01X6.3583Y-2.9173
M16
G05
G00X6.3583Y-3.5394
M15
G01X6.3583Y-3.4685
M16
G05
T0
M30
