G04 #@! TF.GenerationSoftware,KiCad,Pcbnew,6.0.2+dfsg-1*
G04 #@! TF.CreationDate,2022-10-24T19:59:27+02:00*
G04 #@! TF.ProjectId,triple_diode_or_tile,74726970-6c65-45f6-9469-6f64655f6f72,rev?*
G04 #@! TF.SameCoordinates,Original*
G04 #@! TF.FileFunction,Copper,L1,Top*
G04 #@! TF.FilePolarity,Positive*
%FSLAX46Y46*%
G04 Gerber Fmt 4.6, Leading zero omitted, Abs format (unit mm)*
G04 Created by KiCad (PCBNEW 6.0.2+dfsg-1) date 2022-10-24 19:59:27*
%MOMM*%
%LPD*%
G01*
G04 APERTURE LIST*
G04 Aperture macros list*
%AMRoundRect*
0 Rectangle with rounded corners*
0 $1 Rounding radius*
0 $2 $3 $4 $5 $6 $7 $8 $9 X,Y pos of 4 corners*
0 Add a 4 corners polygon primitive as box body*
4,1,4,$2,$3,$4,$5,$6,$7,$8,$9,$2,$3,0*
0 Add four circle primitives for the rounded corners*
1,1,$1+$1,$2,$3*
1,1,$1+$1,$4,$5*
1,1,$1+$1,$6,$7*
1,1,$1+$1,$8,$9*
0 Add four rect primitives between the rounded corners*
20,1,$1+$1,$2,$3,$4,$5,0*
20,1,$1+$1,$4,$5,$6,$7,0*
20,1,$1+$1,$6,$7,$8,$9,0*
20,1,$1+$1,$8,$9,$2,$3,0*%
G04 Aperture macros list end*
G04 #@! TA.AperFunction,ComponentPad*
%ADD10O,1.600000X3.400000*%
G04 #@! TD*
G04 #@! TA.AperFunction,ComponentPad*
%ADD11O,3.400000X1.600000*%
G04 #@! TD*
G04 #@! TA.AperFunction,SMDPad,CuDef*
%ADD12RoundRect,0.250000X0.400000X0.625000X-0.400000X0.625000X-0.400000X-0.625000X0.400000X-0.625000X0*%
G04 #@! TD*
G04 #@! TA.AperFunction,SMDPad,CuDef*
%ADD13RoundRect,0.250001X0.624999X-0.462499X0.624999X0.462499X-0.624999X0.462499X-0.624999X-0.462499X0*%
G04 #@! TD*
G04 #@! TA.AperFunction,SMDPad,CuDef*
%ADD14RoundRect,0.250001X-0.462499X-0.624999X0.462499X-0.624999X0.462499X0.624999X-0.462499X0.624999X0*%
G04 #@! TD*
G04 #@! TA.AperFunction,SMDPad,CuDef*
%ADD15RoundRect,0.250001X-0.624999X0.462499X-0.624999X-0.462499X0.624999X-0.462499X0.624999X0.462499X0*%
G04 #@! TD*
G04 #@! TA.AperFunction,ViaPad*
%ADD16C,0.800000*%
G04 #@! TD*
G04 #@! TA.AperFunction,Conductor*
%ADD17C,0.250000*%
G04 #@! TD*
G04 APERTURE END LIST*
D10*
X147500000Y-75000000D03*
D11*
X145000000Y-72500000D03*
D10*
X142500000Y-75000000D03*
X142500000Y-89000000D03*
D11*
X145000000Y-91500000D03*
D10*
X147500000Y-89000000D03*
X156500000Y-89000000D03*
D11*
X159000000Y-91500000D03*
D10*
X161500000Y-89000000D03*
X161500000Y-75000000D03*
D11*
X159000000Y-72500000D03*
D10*
X156500000Y-75000000D03*
D12*
X146550000Y-82000000D03*
X143450000Y-82000000D03*
D13*
X152000000Y-76487500D03*
X152000000Y-73512500D03*
D14*
X157512500Y-82000000D03*
X160487500Y-82000000D03*
D15*
X152000000Y-87512500D03*
X152000000Y-90487500D03*
D16*
X141732000Y-82042000D03*
D17*
X155000000Y-73500000D02*
X156500000Y-75000000D01*
X152000000Y-73500000D02*
X155000000Y-73500000D01*
X147000000Y-78450000D02*
X143550000Y-75000000D01*
X152000000Y-76500000D02*
X152000000Y-77250000D01*
X147000000Y-82000000D02*
X147000000Y-78450000D01*
X143550000Y-75000000D02*
X142500000Y-75000000D01*
X152000000Y-86750000D02*
X147250000Y-82000000D01*
X157500000Y-82000000D02*
X147000000Y-82000000D01*
X152000000Y-77250000D02*
X147250000Y-82000000D01*
X147250000Y-82000000D02*
X147000000Y-82000000D01*
X152000000Y-87500000D02*
X152000000Y-86750000D01*
X161500000Y-89000000D02*
X161500000Y-82250000D01*
X161500000Y-82250000D02*
X161250000Y-82000000D01*
X161250000Y-82000000D02*
X160500000Y-82000000D01*
X149000000Y-90500000D02*
X147500000Y-89000000D01*
X152000000Y-90500000D02*
X149000000Y-90500000D01*
X141774000Y-82000000D02*
X141732000Y-82042000D01*
X145000000Y-90450000D02*
X145000000Y-91500000D01*
X143450000Y-82000000D02*
X141774000Y-82000000D01*
M02*
