G04 #@! TF.GenerationSoftware,KiCad,Pcbnew,6.0.2+dfsg-1*
G04 #@! TF.CreationDate,2022-10-24T19:59:27+02:00*
G04 #@! TF.ProjectId,triple_diode_or_tile,74726970-6c65-45f6-9469-6f64655f6f72,rev?*
G04 #@! TF.SameCoordinates,Original*
G04 #@! TF.FileFunction,Copper,L2,Bot*
G04 #@! TF.FilePolarity,Positive*
%FSLAX46Y46*%
G04 Gerber Fmt 4.6, Leading zero omitted, Abs format (unit mm)*
G04 Created by KiCad (PCBNEW 6.0.2+dfsg-1) date 2022-10-24 19:59:27*
%MOMM*%
%LPD*%
G01*
G04 APERTURE LIST*
G04 #@! TA.AperFunction,ComponentPad*
%ADD10O,1.600000X3.400000*%
G04 #@! TD*
G04 #@! TA.AperFunction,ComponentPad*
%ADD11O,3.400000X1.600000*%
G04 #@! TD*
G04 #@! TA.AperFunction,ViaPad*
%ADD12C,0.800000*%
G04 #@! TD*
G04 APERTURE END LIST*
D10*
X147500000Y-75000000D03*
D11*
X145000000Y-72500000D03*
D10*
X142500000Y-75000000D03*
X142500000Y-89000000D03*
D11*
X145000000Y-91500000D03*
D10*
X147500000Y-89000000D03*
X156500000Y-89000000D03*
D11*
X159000000Y-91500000D03*
D10*
X161500000Y-89000000D03*
X161500000Y-75000000D03*
D11*
X159000000Y-72500000D03*
D10*
X156500000Y-75000000D03*
D12*
X141732000Y-82042000D03*
G04 #@! TA.AperFunction,Conductor*
G36*
X163434121Y-70528002D02*
G01*
X163480614Y-70581658D01*
X163492000Y-70634000D01*
X163492000Y-93366000D01*
X163471998Y-93434121D01*
X163418342Y-93480614D01*
X163366000Y-93492000D01*
X140634000Y-93492000D01*
X140565879Y-93471998D01*
X140519386Y-93418342D01*
X140508000Y-93366000D01*
X140508000Y-91766522D01*
X142817273Y-91766522D01*
X142864764Y-91943761D01*
X142868510Y-91954053D01*
X142960586Y-92151511D01*
X142966069Y-92161007D01*
X143091028Y-92339467D01*
X143098084Y-92347875D01*
X143252125Y-92501916D01*
X143260533Y-92508972D01*
X143438993Y-92633931D01*
X143448489Y-92639414D01*
X143645947Y-92731490D01*
X143656239Y-92735236D01*
X143866688Y-92791625D01*
X143877481Y-92793528D01*
X144040170Y-92807762D01*
X144045635Y-92808000D01*
X144727885Y-92808000D01*
X144743124Y-92803525D01*
X144744329Y-92802135D01*
X144746000Y-92794452D01*
X144746000Y-92789885D01*
X145254000Y-92789885D01*
X145258475Y-92805124D01*
X145259865Y-92806329D01*
X145267548Y-92808000D01*
X145954365Y-92808000D01*
X145959830Y-92807762D01*
X146122519Y-92793528D01*
X146133312Y-92791625D01*
X146343761Y-92735236D01*
X146354053Y-92731490D01*
X146551511Y-92639414D01*
X146561007Y-92633931D01*
X146739467Y-92508972D01*
X146747875Y-92501916D01*
X146901916Y-92347875D01*
X146908972Y-92339467D01*
X147033931Y-92161007D01*
X147039414Y-92151511D01*
X147131490Y-91954053D01*
X147135236Y-91943761D01*
X147181394Y-91771497D01*
X147181275Y-91766522D01*
X156817273Y-91766522D01*
X156864764Y-91943761D01*
X156868510Y-91954053D01*
X156960586Y-92151511D01*
X156966069Y-92161007D01*
X157091028Y-92339467D01*
X157098084Y-92347875D01*
X157252125Y-92501916D01*
X157260533Y-92508972D01*
X157438993Y-92633931D01*
X157448489Y-92639414D01*
X157645947Y-92731490D01*
X157656239Y-92735236D01*
X157866688Y-92791625D01*
X157877481Y-92793528D01*
X158040170Y-92807762D01*
X158045635Y-92808000D01*
X158727885Y-92808000D01*
X158743124Y-92803525D01*
X158744329Y-92802135D01*
X158746000Y-92794452D01*
X158746000Y-92789885D01*
X159254000Y-92789885D01*
X159258475Y-92805124D01*
X159259865Y-92806329D01*
X159267548Y-92808000D01*
X159954365Y-92808000D01*
X159959830Y-92807762D01*
X160122519Y-92793528D01*
X160133312Y-92791625D01*
X160343761Y-92735236D01*
X160354053Y-92731490D01*
X160551511Y-92639414D01*
X160561007Y-92633931D01*
X160739467Y-92508972D01*
X160747875Y-92501916D01*
X160901916Y-92347875D01*
X160908972Y-92339467D01*
X161033931Y-92161007D01*
X161039414Y-92151511D01*
X161131490Y-91954053D01*
X161135236Y-91943761D01*
X161181394Y-91771497D01*
X161181058Y-91757401D01*
X161173116Y-91754000D01*
X159272115Y-91754000D01*
X159256876Y-91758475D01*
X159255671Y-91759865D01*
X159254000Y-91767548D01*
X159254000Y-92789885D01*
X158746000Y-92789885D01*
X158746000Y-91772115D01*
X158741525Y-91756876D01*
X158740135Y-91755671D01*
X158732452Y-91754000D01*
X156832033Y-91754000D01*
X156818502Y-91757973D01*
X156817273Y-91766522D01*
X147181275Y-91766522D01*
X147181058Y-91757401D01*
X147173116Y-91754000D01*
X145272115Y-91754000D01*
X145256876Y-91758475D01*
X145255671Y-91759865D01*
X145254000Y-91767548D01*
X145254000Y-92789885D01*
X144746000Y-92789885D01*
X144746000Y-91772115D01*
X144741525Y-91756876D01*
X144740135Y-91755671D01*
X144732452Y-91754000D01*
X142832033Y-91754000D01*
X142818502Y-91757973D01*
X142817273Y-91766522D01*
X140508000Y-91766522D01*
X140508000Y-89957127D01*
X141191500Y-89957127D01*
X141206457Y-90128087D01*
X141207881Y-90133400D01*
X141207881Y-90133402D01*
X141224782Y-90196475D01*
X141265716Y-90349243D01*
X141268039Y-90354224D01*
X141268039Y-90354225D01*
X141360151Y-90551762D01*
X141360154Y-90551767D01*
X141362477Y-90556749D01*
X141493802Y-90744300D01*
X141655700Y-90906198D01*
X141660208Y-90909355D01*
X141660211Y-90909357D01*
X141738389Y-90964098D01*
X141843251Y-91037523D01*
X141848233Y-91039846D01*
X141848238Y-91039849D01*
X142045775Y-91131961D01*
X142050757Y-91134284D01*
X142056065Y-91135706D01*
X142056067Y-91135707D01*
X142266598Y-91192119D01*
X142266600Y-91192119D01*
X142271913Y-91193543D01*
X142500000Y-91213498D01*
X142505475Y-91213019D01*
X142707616Y-91195334D01*
X142777221Y-91209323D01*
X142810258Y-91238880D01*
X142826884Y-91246000D01*
X144727885Y-91246000D01*
X144743124Y-91241525D01*
X144744329Y-91240135D01*
X144746000Y-91232452D01*
X144746000Y-91227885D01*
X145254000Y-91227885D01*
X145258475Y-91243124D01*
X145259865Y-91244329D01*
X145267548Y-91246000D01*
X147167967Y-91246000D01*
X147183207Y-91241525D01*
X147185981Y-91238324D01*
X147245707Y-91199941D01*
X147292185Y-91195317D01*
X147494524Y-91213019D01*
X147494525Y-91213019D01*
X147500000Y-91213498D01*
X147728087Y-91193543D01*
X147733400Y-91192119D01*
X147733402Y-91192119D01*
X147943933Y-91135707D01*
X147943935Y-91135706D01*
X147949243Y-91134284D01*
X147954225Y-91131961D01*
X148151762Y-91039849D01*
X148151767Y-91039846D01*
X148156749Y-91037523D01*
X148261611Y-90964098D01*
X148339789Y-90909357D01*
X148339792Y-90909355D01*
X148344300Y-90906198D01*
X148506198Y-90744300D01*
X148637523Y-90556749D01*
X148639846Y-90551767D01*
X148639849Y-90551762D01*
X148731961Y-90354225D01*
X148731961Y-90354224D01*
X148734284Y-90349243D01*
X148775219Y-90196475D01*
X148792119Y-90133402D01*
X148792119Y-90133400D01*
X148793543Y-90128087D01*
X148808500Y-89957127D01*
X155191500Y-89957127D01*
X155206457Y-90128087D01*
X155207881Y-90133400D01*
X155207881Y-90133402D01*
X155224782Y-90196475D01*
X155265716Y-90349243D01*
X155268039Y-90354224D01*
X155268039Y-90354225D01*
X155360151Y-90551762D01*
X155360154Y-90551767D01*
X155362477Y-90556749D01*
X155493802Y-90744300D01*
X155655700Y-90906198D01*
X155660208Y-90909355D01*
X155660211Y-90909357D01*
X155738389Y-90964098D01*
X155843251Y-91037523D01*
X155848233Y-91039846D01*
X155848238Y-91039849D01*
X156045775Y-91131961D01*
X156050757Y-91134284D01*
X156056065Y-91135706D01*
X156056067Y-91135707D01*
X156266598Y-91192119D01*
X156266600Y-91192119D01*
X156271913Y-91193543D01*
X156500000Y-91213498D01*
X156505475Y-91213019D01*
X156707616Y-91195334D01*
X156777221Y-91209323D01*
X156810258Y-91238880D01*
X156826884Y-91246000D01*
X158727885Y-91246000D01*
X158743124Y-91241525D01*
X158744329Y-91240135D01*
X158746000Y-91232452D01*
X158746000Y-91227885D01*
X159254000Y-91227885D01*
X159258475Y-91243124D01*
X159259865Y-91244329D01*
X159267548Y-91246000D01*
X161167967Y-91246000D01*
X161183207Y-91241525D01*
X161185981Y-91238324D01*
X161245707Y-91199941D01*
X161292185Y-91195317D01*
X161494524Y-91213019D01*
X161494525Y-91213019D01*
X161500000Y-91213498D01*
X161728087Y-91193543D01*
X161733400Y-91192119D01*
X161733402Y-91192119D01*
X161943933Y-91135707D01*
X161943935Y-91135706D01*
X161949243Y-91134284D01*
X161954225Y-91131961D01*
X162151762Y-91039849D01*
X162151767Y-91039846D01*
X162156749Y-91037523D01*
X162261611Y-90964098D01*
X162339789Y-90909357D01*
X162339792Y-90909355D01*
X162344300Y-90906198D01*
X162506198Y-90744300D01*
X162637523Y-90556749D01*
X162639846Y-90551767D01*
X162639849Y-90551762D01*
X162731961Y-90354225D01*
X162731961Y-90354224D01*
X162734284Y-90349243D01*
X162775219Y-90196475D01*
X162792119Y-90133402D01*
X162792119Y-90133400D01*
X162793543Y-90128087D01*
X162808500Y-89957127D01*
X162808500Y-88042873D01*
X162793543Y-87871913D01*
X162734284Y-87650757D01*
X162731961Y-87645775D01*
X162639849Y-87448238D01*
X162639846Y-87448233D01*
X162637523Y-87443251D01*
X162506198Y-87255700D01*
X162344300Y-87093802D01*
X162339792Y-87090645D01*
X162339789Y-87090643D01*
X162261611Y-87035902D01*
X162156749Y-86962477D01*
X162151767Y-86960154D01*
X162151762Y-86960151D01*
X161954225Y-86868039D01*
X161954224Y-86868039D01*
X161949243Y-86865716D01*
X161943935Y-86864294D01*
X161943933Y-86864293D01*
X161733402Y-86807881D01*
X161733400Y-86807881D01*
X161728087Y-86806457D01*
X161500000Y-86786502D01*
X161271913Y-86806457D01*
X161266600Y-86807881D01*
X161266598Y-86807881D01*
X161056067Y-86864293D01*
X161056065Y-86864294D01*
X161050757Y-86865716D01*
X161045776Y-86868039D01*
X161045775Y-86868039D01*
X160848238Y-86960151D01*
X160848233Y-86960154D01*
X160843251Y-86962477D01*
X160738389Y-87035902D01*
X160660211Y-87090643D01*
X160660208Y-87090645D01*
X160655700Y-87093802D01*
X160493802Y-87255700D01*
X160362477Y-87443251D01*
X160360154Y-87448233D01*
X160360151Y-87448238D01*
X160268039Y-87645775D01*
X160265716Y-87650757D01*
X160206457Y-87871913D01*
X160191500Y-88042873D01*
X160191500Y-89957127D01*
X160191738Y-89959844D01*
X160191738Y-89959851D01*
X160200928Y-90064886D01*
X160186939Y-90134491D01*
X160137540Y-90185483D01*
X160064426Y-90201389D01*
X159959830Y-90192238D01*
X159954365Y-90192000D01*
X159272115Y-90192000D01*
X159256876Y-90196475D01*
X159255671Y-90197865D01*
X159254000Y-90205548D01*
X159254000Y-91227885D01*
X158746000Y-91227885D01*
X158746000Y-90210115D01*
X158741525Y-90194876D01*
X158740135Y-90193671D01*
X158732452Y-90192000D01*
X158045635Y-90192000D01*
X158040170Y-90192238D01*
X157935574Y-90201389D01*
X157865969Y-90187400D01*
X157814977Y-90138000D01*
X157799072Y-90064886D01*
X157808262Y-89959851D01*
X157808262Y-89959844D01*
X157808500Y-89957127D01*
X157808500Y-88042873D01*
X157793543Y-87871913D01*
X157734284Y-87650757D01*
X157731961Y-87645775D01*
X157639849Y-87448238D01*
X157639846Y-87448233D01*
X157637523Y-87443251D01*
X157506198Y-87255700D01*
X157344300Y-87093802D01*
X157339792Y-87090645D01*
X157339789Y-87090643D01*
X157261611Y-87035902D01*
X157156749Y-86962477D01*
X157151767Y-86960154D01*
X157151762Y-86960151D01*
X156954225Y-86868039D01*
X156954224Y-86868039D01*
X156949243Y-86865716D01*
X156943935Y-86864294D01*
X156943933Y-86864293D01*
X156733402Y-86807881D01*
X156733400Y-86807881D01*
X156728087Y-86806457D01*
X156500000Y-86786502D01*
X156271913Y-86806457D01*
X156266600Y-86807881D01*
X156266598Y-86807881D01*
X156056067Y-86864293D01*
X156056065Y-86864294D01*
X156050757Y-86865716D01*
X156045776Y-86868039D01*
X156045775Y-86868039D01*
X155848238Y-86960151D01*
X155848233Y-86960154D01*
X155843251Y-86962477D01*
X155738389Y-87035902D01*
X155660211Y-87090643D01*
X155660208Y-87090645D01*
X155655700Y-87093802D01*
X155493802Y-87255700D01*
X155362477Y-87443251D01*
X155360154Y-87448233D01*
X155360151Y-87448238D01*
X155268039Y-87645775D01*
X155265716Y-87650757D01*
X155206457Y-87871913D01*
X155191500Y-88042873D01*
X155191500Y-89957127D01*
X148808500Y-89957127D01*
X148808500Y-88042873D01*
X148793543Y-87871913D01*
X148734284Y-87650757D01*
X148731961Y-87645775D01*
X148639849Y-87448238D01*
X148639846Y-87448233D01*
X148637523Y-87443251D01*
X148506198Y-87255700D01*
X148344300Y-87093802D01*
X148339792Y-87090645D01*
X148339789Y-87090643D01*
X148261611Y-87035902D01*
X148156749Y-86962477D01*
X148151767Y-86960154D01*
X148151762Y-86960151D01*
X147954225Y-86868039D01*
X147954224Y-86868039D01*
X147949243Y-86865716D01*
X147943935Y-86864294D01*
X147943933Y-86864293D01*
X147733402Y-86807881D01*
X147733400Y-86807881D01*
X147728087Y-86806457D01*
X147500000Y-86786502D01*
X147271913Y-86806457D01*
X147266600Y-86807881D01*
X147266598Y-86807881D01*
X147056067Y-86864293D01*
X147056065Y-86864294D01*
X147050757Y-86865716D01*
X147045776Y-86868039D01*
X147045775Y-86868039D01*
X146848238Y-86960151D01*
X146848233Y-86960154D01*
X146843251Y-86962477D01*
X146738389Y-87035902D01*
X146660211Y-87090643D01*
X146660208Y-87090645D01*
X146655700Y-87093802D01*
X146493802Y-87255700D01*
X146362477Y-87443251D01*
X146360154Y-87448233D01*
X146360151Y-87448238D01*
X146268039Y-87645775D01*
X146265716Y-87650757D01*
X146206457Y-87871913D01*
X146191500Y-88042873D01*
X146191500Y-89957127D01*
X146191738Y-89959844D01*
X146191738Y-89959851D01*
X146200928Y-90064886D01*
X146186939Y-90134491D01*
X146137540Y-90185483D01*
X146064426Y-90201389D01*
X145959830Y-90192238D01*
X145954365Y-90192000D01*
X145272115Y-90192000D01*
X145256876Y-90196475D01*
X145255671Y-90197865D01*
X145254000Y-90205548D01*
X145254000Y-91227885D01*
X144746000Y-91227885D01*
X144746000Y-90210115D01*
X144741525Y-90194876D01*
X144740135Y-90193671D01*
X144732452Y-90192000D01*
X144045635Y-90192000D01*
X144040170Y-90192238D01*
X143935574Y-90201389D01*
X143865969Y-90187400D01*
X143814977Y-90138000D01*
X143799072Y-90064886D01*
X143808262Y-89959851D01*
X143808262Y-89959844D01*
X143808500Y-89957127D01*
X143808500Y-88042873D01*
X143793543Y-87871913D01*
X143734284Y-87650757D01*
X143731961Y-87645775D01*
X143639849Y-87448238D01*
X143639846Y-87448233D01*
X143637523Y-87443251D01*
X143506198Y-87255700D01*
X143344300Y-87093802D01*
X143339792Y-87090645D01*
X143339789Y-87090643D01*
X143261611Y-87035902D01*
X143156749Y-86962477D01*
X143151767Y-86960154D01*
X143151762Y-86960151D01*
X142954225Y-86868039D01*
X142954224Y-86868039D01*
X142949243Y-86865716D01*
X142943935Y-86864294D01*
X142943933Y-86864293D01*
X142733402Y-86807881D01*
X142733400Y-86807881D01*
X142728087Y-86806457D01*
X142500000Y-86786502D01*
X142271913Y-86806457D01*
X142266600Y-86807881D01*
X142266598Y-86807881D01*
X142056067Y-86864293D01*
X142056065Y-86864294D01*
X142050757Y-86865716D01*
X142045776Y-86868039D01*
X142045775Y-86868039D01*
X141848238Y-86960151D01*
X141848233Y-86960154D01*
X141843251Y-86962477D01*
X141738389Y-87035902D01*
X141660211Y-87090643D01*
X141660208Y-87090645D01*
X141655700Y-87093802D01*
X141493802Y-87255700D01*
X141362477Y-87443251D01*
X141360154Y-87448233D01*
X141360151Y-87448238D01*
X141268039Y-87645775D01*
X141265716Y-87650757D01*
X141206457Y-87871913D01*
X141191500Y-88042873D01*
X141191500Y-89957127D01*
X140508000Y-89957127D01*
X140508000Y-75957127D01*
X141191500Y-75957127D01*
X141206457Y-76128087D01*
X141265716Y-76349243D01*
X141268039Y-76354224D01*
X141268039Y-76354225D01*
X141360151Y-76551762D01*
X141360154Y-76551767D01*
X141362477Y-76556749D01*
X141493802Y-76744300D01*
X141655700Y-76906198D01*
X141660208Y-76909355D01*
X141660211Y-76909357D01*
X141738389Y-76964098D01*
X141843251Y-77037523D01*
X141848233Y-77039846D01*
X141848238Y-77039849D01*
X142045775Y-77131961D01*
X142050757Y-77134284D01*
X142056065Y-77135706D01*
X142056067Y-77135707D01*
X142266598Y-77192119D01*
X142266600Y-77192119D01*
X142271913Y-77193543D01*
X142500000Y-77213498D01*
X142728087Y-77193543D01*
X142733400Y-77192119D01*
X142733402Y-77192119D01*
X142943933Y-77135707D01*
X142943935Y-77135706D01*
X142949243Y-77134284D01*
X142954225Y-77131961D01*
X143151762Y-77039849D01*
X143151767Y-77039846D01*
X143156749Y-77037523D01*
X143261611Y-76964098D01*
X143339789Y-76909357D01*
X143339792Y-76909355D01*
X143344300Y-76906198D01*
X143506198Y-76744300D01*
X143637523Y-76556749D01*
X143639846Y-76551767D01*
X143639849Y-76551762D01*
X143731961Y-76354225D01*
X143731961Y-76354224D01*
X143734284Y-76349243D01*
X143793543Y-76128087D01*
X143808500Y-75957127D01*
X143808500Y-74042873D01*
X143799072Y-73935113D01*
X143813061Y-73865509D01*
X143862460Y-73814517D01*
X143935574Y-73798611D01*
X144040170Y-73807762D01*
X144045635Y-73808000D01*
X144727885Y-73808000D01*
X144743124Y-73803525D01*
X144744329Y-73802135D01*
X144746000Y-73794452D01*
X144746000Y-73789885D01*
X145254000Y-73789885D01*
X145258475Y-73805124D01*
X145259865Y-73806329D01*
X145267548Y-73808000D01*
X145954365Y-73808000D01*
X145959830Y-73807762D01*
X146064426Y-73798611D01*
X146134031Y-73812600D01*
X146185023Y-73862000D01*
X146200928Y-73935113D01*
X146191500Y-74042873D01*
X146191500Y-75957127D01*
X146206457Y-76128087D01*
X146265716Y-76349243D01*
X146268039Y-76354224D01*
X146268039Y-76354225D01*
X146360151Y-76551762D01*
X146360154Y-76551767D01*
X146362477Y-76556749D01*
X146493802Y-76744300D01*
X146655700Y-76906198D01*
X146660208Y-76909355D01*
X146660211Y-76909357D01*
X146738389Y-76964098D01*
X146843251Y-77037523D01*
X146848233Y-77039846D01*
X146848238Y-77039849D01*
X147045775Y-77131961D01*
X147050757Y-77134284D01*
X147056065Y-77135706D01*
X147056067Y-77135707D01*
X147266598Y-77192119D01*
X147266600Y-77192119D01*
X147271913Y-77193543D01*
X147500000Y-77213498D01*
X147728087Y-77193543D01*
X147733400Y-77192119D01*
X147733402Y-77192119D01*
X147943933Y-77135707D01*
X147943935Y-77135706D01*
X147949243Y-77134284D01*
X147954225Y-77131961D01*
X148151762Y-77039849D01*
X148151767Y-77039846D01*
X148156749Y-77037523D01*
X148261611Y-76964098D01*
X148339789Y-76909357D01*
X148339792Y-76909355D01*
X148344300Y-76906198D01*
X148506198Y-76744300D01*
X148637523Y-76556749D01*
X148639846Y-76551767D01*
X148639849Y-76551762D01*
X148731961Y-76354225D01*
X148731961Y-76354224D01*
X148734284Y-76349243D01*
X148793543Y-76128087D01*
X148808500Y-75957127D01*
X155191500Y-75957127D01*
X155206457Y-76128087D01*
X155265716Y-76349243D01*
X155268039Y-76354224D01*
X155268039Y-76354225D01*
X155360151Y-76551762D01*
X155360154Y-76551767D01*
X155362477Y-76556749D01*
X155493802Y-76744300D01*
X155655700Y-76906198D01*
X155660208Y-76909355D01*
X155660211Y-76909357D01*
X155738389Y-76964098D01*
X155843251Y-77037523D01*
X155848233Y-77039846D01*
X155848238Y-77039849D01*
X156045775Y-77131961D01*
X156050757Y-77134284D01*
X156056065Y-77135706D01*
X156056067Y-77135707D01*
X156266598Y-77192119D01*
X156266600Y-77192119D01*
X156271913Y-77193543D01*
X156500000Y-77213498D01*
X156728087Y-77193543D01*
X156733400Y-77192119D01*
X156733402Y-77192119D01*
X156943933Y-77135707D01*
X156943935Y-77135706D01*
X156949243Y-77134284D01*
X156954225Y-77131961D01*
X157151762Y-77039849D01*
X157151767Y-77039846D01*
X157156749Y-77037523D01*
X157261611Y-76964098D01*
X157339789Y-76909357D01*
X157339792Y-76909355D01*
X157344300Y-76906198D01*
X157506198Y-76744300D01*
X157637523Y-76556749D01*
X157639846Y-76551767D01*
X157639849Y-76551762D01*
X157731961Y-76354225D01*
X157731961Y-76354224D01*
X157734284Y-76349243D01*
X157793543Y-76128087D01*
X157808500Y-75957127D01*
X157808500Y-74042873D01*
X157799072Y-73935113D01*
X157813061Y-73865509D01*
X157862460Y-73814517D01*
X157935574Y-73798611D01*
X158040170Y-73807762D01*
X158045635Y-73808000D01*
X158727885Y-73808000D01*
X158743124Y-73803525D01*
X158744329Y-73802135D01*
X158746000Y-73794452D01*
X158746000Y-73789885D01*
X159254000Y-73789885D01*
X159258475Y-73805124D01*
X159259865Y-73806329D01*
X159267548Y-73808000D01*
X159954365Y-73808000D01*
X159959830Y-73807762D01*
X160064426Y-73798611D01*
X160134031Y-73812600D01*
X160185023Y-73862000D01*
X160200928Y-73935113D01*
X160191500Y-74042873D01*
X160191500Y-75957127D01*
X160206457Y-76128087D01*
X160265716Y-76349243D01*
X160268039Y-76354224D01*
X160268039Y-76354225D01*
X160360151Y-76551762D01*
X160360154Y-76551767D01*
X160362477Y-76556749D01*
X160493802Y-76744300D01*
X160655700Y-76906198D01*
X160660208Y-76909355D01*
X160660211Y-76909357D01*
X160738389Y-76964098D01*
X160843251Y-77037523D01*
X160848233Y-77039846D01*
X160848238Y-77039849D01*
X161045775Y-77131961D01*
X161050757Y-77134284D01*
X161056065Y-77135706D01*
X161056067Y-77135707D01*
X161266598Y-77192119D01*
X161266600Y-77192119D01*
X161271913Y-77193543D01*
X161500000Y-77213498D01*
X161728087Y-77193543D01*
X161733400Y-77192119D01*
X161733402Y-77192119D01*
X161943933Y-77135707D01*
X161943935Y-77135706D01*
X161949243Y-77134284D01*
X161954225Y-77131961D01*
X162151762Y-77039849D01*
X162151767Y-77039846D01*
X162156749Y-77037523D01*
X162261611Y-76964098D01*
X162339789Y-76909357D01*
X162339792Y-76909355D01*
X162344300Y-76906198D01*
X162506198Y-76744300D01*
X162637523Y-76556749D01*
X162639846Y-76551767D01*
X162639849Y-76551762D01*
X162731961Y-76354225D01*
X162731961Y-76354224D01*
X162734284Y-76349243D01*
X162793543Y-76128087D01*
X162808500Y-75957127D01*
X162808500Y-74042873D01*
X162793543Y-73871913D01*
X162777650Y-73812600D01*
X162735707Y-73656067D01*
X162735706Y-73656065D01*
X162734284Y-73650757D01*
X162731961Y-73645775D01*
X162639849Y-73448238D01*
X162639846Y-73448233D01*
X162637523Y-73443251D01*
X162506198Y-73255700D01*
X162344300Y-73093802D01*
X162339792Y-73090645D01*
X162339789Y-73090643D01*
X162261611Y-73035902D01*
X162156749Y-72962477D01*
X162151767Y-72960154D01*
X162151762Y-72960151D01*
X161954225Y-72868039D01*
X161954224Y-72868039D01*
X161949243Y-72865716D01*
X161943935Y-72864294D01*
X161943933Y-72864293D01*
X161733402Y-72807881D01*
X161733400Y-72807881D01*
X161728087Y-72806457D01*
X161500000Y-72786502D01*
X161494525Y-72786981D01*
X161345043Y-72800059D01*
X161292384Y-72804666D01*
X161222779Y-72790677D01*
X161189742Y-72761120D01*
X161173116Y-72754000D01*
X159272115Y-72754000D01*
X159256876Y-72758475D01*
X159255671Y-72759865D01*
X159254000Y-72767548D01*
X159254000Y-73789885D01*
X158746000Y-73789885D01*
X158746000Y-72772115D01*
X158741525Y-72756876D01*
X158740135Y-72755671D01*
X158732452Y-72754000D01*
X156832033Y-72754000D01*
X156816793Y-72758475D01*
X156814019Y-72761676D01*
X156754293Y-72800059D01*
X156707815Y-72804683D01*
X156505476Y-72786981D01*
X156505475Y-72786981D01*
X156500000Y-72786502D01*
X156271913Y-72806457D01*
X156266600Y-72807881D01*
X156266598Y-72807881D01*
X156056067Y-72864293D01*
X156056065Y-72864294D01*
X156050757Y-72865716D01*
X156045776Y-72868039D01*
X156045775Y-72868039D01*
X155848238Y-72960151D01*
X155848233Y-72960154D01*
X155843251Y-72962477D01*
X155738389Y-73035902D01*
X155660211Y-73090643D01*
X155660208Y-73090645D01*
X155655700Y-73093802D01*
X155493802Y-73255700D01*
X155362477Y-73443251D01*
X155360154Y-73448233D01*
X155360151Y-73448238D01*
X155268039Y-73645775D01*
X155265716Y-73650757D01*
X155264294Y-73656065D01*
X155264293Y-73656067D01*
X155222350Y-73812600D01*
X155206457Y-73871913D01*
X155191500Y-74042873D01*
X155191500Y-75957127D01*
X148808500Y-75957127D01*
X148808500Y-74042873D01*
X148793543Y-73871913D01*
X148777650Y-73812600D01*
X148735707Y-73656067D01*
X148735706Y-73656065D01*
X148734284Y-73650757D01*
X148731961Y-73645775D01*
X148639849Y-73448238D01*
X148639846Y-73448233D01*
X148637523Y-73443251D01*
X148506198Y-73255700D01*
X148344300Y-73093802D01*
X148339792Y-73090645D01*
X148339789Y-73090643D01*
X148261611Y-73035902D01*
X148156749Y-72962477D01*
X148151767Y-72960154D01*
X148151762Y-72960151D01*
X147954225Y-72868039D01*
X147954224Y-72868039D01*
X147949243Y-72865716D01*
X147943935Y-72864294D01*
X147943933Y-72864293D01*
X147733402Y-72807881D01*
X147733400Y-72807881D01*
X147728087Y-72806457D01*
X147500000Y-72786502D01*
X147494525Y-72786981D01*
X147345043Y-72800059D01*
X147292384Y-72804666D01*
X147222779Y-72790677D01*
X147189742Y-72761120D01*
X147173116Y-72754000D01*
X145272115Y-72754000D01*
X145256876Y-72758475D01*
X145255671Y-72759865D01*
X145254000Y-72767548D01*
X145254000Y-73789885D01*
X144746000Y-73789885D01*
X144746000Y-72772115D01*
X144741525Y-72756876D01*
X144740135Y-72755671D01*
X144732452Y-72754000D01*
X142832033Y-72754000D01*
X142816793Y-72758475D01*
X142814019Y-72761676D01*
X142754293Y-72800059D01*
X142707815Y-72804683D01*
X142505476Y-72786981D01*
X142505475Y-72786981D01*
X142500000Y-72786502D01*
X142271913Y-72806457D01*
X142266600Y-72807881D01*
X142266598Y-72807881D01*
X142056067Y-72864293D01*
X142056065Y-72864294D01*
X142050757Y-72865716D01*
X142045776Y-72868039D01*
X142045775Y-72868039D01*
X141848238Y-72960151D01*
X141848233Y-72960154D01*
X141843251Y-72962477D01*
X141738389Y-73035902D01*
X141660211Y-73090643D01*
X141660208Y-73090645D01*
X141655700Y-73093802D01*
X141493802Y-73255700D01*
X141362477Y-73443251D01*
X141360154Y-73448233D01*
X141360151Y-73448238D01*
X141268039Y-73645775D01*
X141265716Y-73650757D01*
X141264294Y-73656065D01*
X141264293Y-73656067D01*
X141222350Y-73812600D01*
X141206457Y-73871913D01*
X141191500Y-74042873D01*
X141191500Y-75957127D01*
X140508000Y-75957127D01*
X140508000Y-72228503D01*
X142818606Y-72228503D01*
X142818942Y-72242599D01*
X142826884Y-72246000D01*
X144727885Y-72246000D01*
X144743124Y-72241525D01*
X144744329Y-72240135D01*
X144746000Y-72232452D01*
X144746000Y-72227885D01*
X145254000Y-72227885D01*
X145258475Y-72243124D01*
X145259865Y-72244329D01*
X145267548Y-72246000D01*
X147167967Y-72246000D01*
X147181498Y-72242027D01*
X147182727Y-72233478D01*
X147181394Y-72228503D01*
X156818606Y-72228503D01*
X156818942Y-72242599D01*
X156826884Y-72246000D01*
X158727885Y-72246000D01*
X158743124Y-72241525D01*
X158744329Y-72240135D01*
X158746000Y-72232452D01*
X158746000Y-72227885D01*
X159254000Y-72227885D01*
X159258475Y-72243124D01*
X159259865Y-72244329D01*
X159267548Y-72246000D01*
X161167967Y-72246000D01*
X161181498Y-72242027D01*
X161182727Y-72233478D01*
X161135236Y-72056239D01*
X161131490Y-72045947D01*
X161039414Y-71848489D01*
X161033931Y-71838993D01*
X160908972Y-71660533D01*
X160901916Y-71652125D01*
X160747875Y-71498084D01*
X160739467Y-71491028D01*
X160561007Y-71366069D01*
X160551511Y-71360586D01*
X160354053Y-71268510D01*
X160343761Y-71264764D01*
X160133312Y-71208375D01*
X160122519Y-71206472D01*
X159959830Y-71192238D01*
X159954365Y-71192000D01*
X159272115Y-71192000D01*
X159256876Y-71196475D01*
X159255671Y-71197865D01*
X159254000Y-71205548D01*
X159254000Y-72227885D01*
X158746000Y-72227885D01*
X158746000Y-71210115D01*
X158741525Y-71194876D01*
X158740135Y-71193671D01*
X158732452Y-71192000D01*
X158045635Y-71192000D01*
X158040170Y-71192238D01*
X157877481Y-71206472D01*
X157866688Y-71208375D01*
X157656239Y-71264764D01*
X157645947Y-71268510D01*
X157448489Y-71360586D01*
X157438993Y-71366069D01*
X157260533Y-71491028D01*
X157252125Y-71498084D01*
X157098084Y-71652125D01*
X157091028Y-71660533D01*
X156966069Y-71838993D01*
X156960586Y-71848489D01*
X156868510Y-72045947D01*
X156864764Y-72056239D01*
X156818606Y-72228503D01*
X147181394Y-72228503D01*
X147135236Y-72056239D01*
X147131490Y-72045947D01*
X147039414Y-71848489D01*
X147033931Y-71838993D01*
X146908972Y-71660533D01*
X146901916Y-71652125D01*
X146747875Y-71498084D01*
X146739467Y-71491028D01*
X146561007Y-71366069D01*
X146551511Y-71360586D01*
X146354053Y-71268510D01*
X146343761Y-71264764D01*
X146133312Y-71208375D01*
X146122519Y-71206472D01*
X145959830Y-71192238D01*
X145954365Y-71192000D01*
X145272115Y-71192000D01*
X145256876Y-71196475D01*
X145255671Y-71197865D01*
X145254000Y-71205548D01*
X145254000Y-72227885D01*
X144746000Y-72227885D01*
X144746000Y-71210115D01*
X144741525Y-71194876D01*
X144740135Y-71193671D01*
X144732452Y-71192000D01*
X144045635Y-71192000D01*
X144040170Y-71192238D01*
X143877481Y-71206472D01*
X143866688Y-71208375D01*
X143656239Y-71264764D01*
X143645947Y-71268510D01*
X143448489Y-71360586D01*
X143438993Y-71366069D01*
X143260533Y-71491028D01*
X143252125Y-71498084D01*
X143098084Y-71652125D01*
X143091028Y-71660533D01*
X142966069Y-71838993D01*
X142960586Y-71848489D01*
X142868510Y-72045947D01*
X142864764Y-72056239D01*
X142818606Y-72228503D01*
X140508000Y-72228503D01*
X140508000Y-70634000D01*
X140528002Y-70565879D01*
X140581658Y-70519386D01*
X140634000Y-70508000D01*
X163366000Y-70508000D01*
X163434121Y-70528002D01*
G37*
G04 #@! TD.AperFunction*
M02*
